<?xml version="1.0" encoding="UTF-8"?>
<!DOCTYPE svg PUBLIC "-//W3C//DTD SVG 1.1//EN" "http://www.w3.org/Graphics/SVG/1.1/DTD/svg11.dtd">
<!-- Creator: CorelDRAW 2021 (64 Bit) -->
<svg xmlns="http://www.w3.org/2000/svg" xml:space="preserve" width="28.256mm" height="28.0236mm" version="1.1" style="shape-rendering:geometricPrecision; text-rendering:geometricPrecision; image-rendering:optimizeQuality; fill-rule:evenodd; clip-rule:evenodd"
viewBox="0 0 17.71 17.56"
 xmlns:xlink="http://www.w3.org/1999/xlink"
 xmlns:xodm="http://www.corel.com/coreldraw/odm/2003">
 <defs>
  <style type="text/css">
   <![CDATA[
    .fil0 {fill:#FF9B30}
   ]]>
  </style>
 </defs>
 <g id="Camada_x0020_1">
  <metadata id="CorelCorpID_0Corel-Layer"/>
  <path class="fil0" d="M-0 15.83c0,0.96 0.78,1.73 1.73,1.73l12.71 0c0.96,-0 1.73,-0.78 1.73,-1.73l0 -6.93c0,-0.32 -0.26,-0.58 -0.58,-0.58 -0.32,0 -0.58,0.26 -0.58,0.58l0 6.93c0,0.32 -0.26,0.58 -0.58,0.58l-12.71 0c-0.32,-0 -0.58,-0.26 -0.58,-0.58l0 -12.71c0,-0.32 0.26,-0.58 0.58,-0.58l7.51 0c0.32,0 0.58,-0.26 0.58,-0.58 0,-0.32 -0.26,-0.58 -0.58,-0.58l-7.51 0c-0.96,0 -1.73,0.78 -1.73,1.73l0 12.71 -0 0z"/>
  <path class="fil0" d="M16.04 0.13l1.53 1.53c0.22,0.22 0.16,0.64 -0.14,0.94l-1.68 1.68 -2.33 -2.33 1.68 -1.68c0.3,-0.3 0.72,-0.36 0.94,-0.14zm-0.96 4.83l-8.55 8.55c-4.5,1.56 -4.12,2.16 -2.32,-2.35l8.54 -8.54 2.33 2.33z"/>
 </g>
</svg>
