<?xml version="1.0" encoding="UTF-8"?>
<!DOCTYPE svg PUBLIC "-//W3C//DTD SVG 1.1//EN" "http://www.w3.org/Graphics/SVG/1.1/DTD/svg11.dtd">
<!-- Creator: CorelDRAW 2021 (64 Bit) -->
<svg xmlns="http://www.w3.org/2000/svg" xml:space="preserve" width="24.6467mm" height="28.4396mm" version="1.1" style="shape-rendering:geometricPrecision; text-rendering:geometricPrecision; image-rendering:optimizeQuality; fill-rule:evenodd; clip-rule:evenodd"
viewBox="0 0 13.36 15.42"
 xmlns:xlink="http://www.w3.org/1999/xlink"
 xmlns:xodm="http://www.corel.com/coreldraw/odm/2003">
 <defs>
  <style type="text/css">
   <![CDATA[
    .fil0 {fill:#FF9B30;fill-rule:nonzero}
   ]]>
  </style>
 </defs>
 <g id="Camada_x0020_1">
  <metadata id="CorelCorpID_0Corel-Layer"/>
  <path class="fil0" d="M1.03 1.03c-0.57,0 -1.03,0.46 -1.03,1.03l0 1.03c0,0.57 0.46,1.03 1.03,1.03l0.51 0 0 9.25c0,1.13 0.92,2.06 2.06,2.06l6.17 0c1.14,-0 2.06,-0.92 2.06,-2.06l-0 -9.25 0.51 0c0.57,0 1.03,-0.46 1.03,-1.03l0 -1.03c0,-0.57 -0.46,-1.03 -1.03,-1.03l-3.6 0c0,-0.57 -0.46,-1.03 -1.03,-1.03l-2.06 0c-0.57,0 -1.03,0.46 -1.03,1.03l-3.6 0zm3.64 3.1l0 0c0.3,0 0.55,0.25 0.55,0.55l0 8.79c0,0.3 -0.25,0.55 -0.55,0.55l-0 0c-0.3,0 -0.55,-0.25 -0.55,-0.55l0 -8.79c0,-0.3 0.25,-0.55 0.55,-0.55zm2.01 0l0 0c0.3,0 0.55,0.25 0.55,0.55l0 8.79c0,0.3 -0.25,0.55 -0.55,0.55l-0 0c-0.3,0 -0.55,-0.25 -0.55,-0.55l0 -8.79c0,-0.3 0.25,-0.55 0.55,-0.55zm2.01 0l0 0c0.3,0 0.55,0.25 0.55,0.55l0 8.79c0,0.3 -0.25,0.55 -0.55,0.55l-0 0c-0.3,0 -0.55,-0.25 -0.55,-0.55l0 -8.79c0,-0.3 0.25,-0.55 0.55,-0.55z"/>
 </g>
</svg>
